# xmcd CD database file
#
# Track frame offsets:
#	150
#	23940
#	50938
#	69833
#	98774
#	119658
#	144952
#	173354
#	197154
#	221296
#	250627
#	278102
#	306679
#
# Disc length: 4470 seconds
#
# Revision: 0
# Processed by: cddbd v1.5.1PL0 Copyright (c) Steve Scherf et al.
# Submitted via: CDex 1.51
#
DISCID=bb11740d
DTITLE=Howlin' Buzz Band - Live Buzz!!
DYEAR=2004
DGENRE=Blues
TTITLE0=Keep to the Highway
TTITLE1=She's been Talkin"
TTITLE2=Honey Hush
TTITLE3=Your gonna need me
TTITLE4=If you lve like you say
TTITLE5=Tiajuana
TTITLE6=Help me
TTITLE7=Messin with the Kid
TTITLE8=I'm ready
TTITLE9=Comin Home
TTITLE10=The Hunter
TTITLE11=The Sky is cryin
TTITLE12=Why Are you So Mean To me
EXTD=YEAR: 2004
EXTT0=
EXTT1=
EXTT2=
EXTT3=
EXTT4=
EXTT5=
EXTT6=
EXTT7=
EXTT8=
EXTT9=
EXTT10=
EXTT11=
EXTT12=
PLAYORDER=
